ffmpeg version 4.3.2-2021-02-02-essentials_build-www.gyan.dev Copyright (c) 2000-2021 the FFmpeg developers
  built with gcc 10.2.0 (Rev6, Built by MSYS2 project)
  configuration: --enable-gpl --enable-version3 --enable-static --disable-w32threads --disable-autodetect --enable-fontconfig --enable-iconv --enable-gnutls --enable-libxml2 --enable-gmp --enable-lzma --enable-zlib --enable-libsrt --enable-libssh --enable-libzmq --enable-avisynth --enable-sdl2 --enable-libwebp --enable-libx264 --enable-libx265 --enable-libxvid --enable-libaom --enable-libopenjpeg --enable-libvpx --enable-libass --enable-libfreetype --enable-libfribidi --enable-libvidstab --enable-libvmaf --enable-libzimg --enable-amf --enable-cuda-llvm --enable-cuvid --enable-ffnvcodec --enable-nvdec --enable-nvenc --enable-d3d11va --enable-dxva2 --enable-libmfx --enable-libgme --enable-libopenmpt --enable-libopencore-amrwb --enable-libmp3lame --enable-libtheora --enable-libvo-amrwbenc --enable-libgsm --enable-libopencore-amrnb --enable-libopus --enable-libspeex --enable-libvorbis --enable-librubberband
  libavutil      56. 51.100 / 56. 51.100
  libavcodec     58. 91.100 / 58. 91.100
  libavformat    58. 45.100 / 58. 45.100
  libavdevice    58. 10.100 / 58. 10.100
  libavfilter     7. 85.100 /  7. 85.100
  libswscale      5.  7.100 /  5.  7.100
  libswresample   3.  7.100 /  3.  7.100
  libpostproc    55.  7.100 / 55.  7.100
Input #0, rawvideo, from 'pipe:':
  Duration: N/A, start: 0.000000, bitrate: 3981312 kb/s
    Stream #0:0: Video: rawvideo (BGRA / 0x41524742), bgra, 1920x1080, 3981312 kb/s, 60 tbr, 60 tbn, 60 tbc
Stream mapping:
  Stream #0:0 -> #0:0 (rawvideo (native) -> h264 (libx264))
[libx264 @ 0000027abb9f3900] using cpu capabilities: MMX2 SSE2Fast SSSE3 SSE4.2 AVX FMA3 BMI2 AVX2
[libx264 @ 0000027abb9f3900] profile High, level 5.0, 4:2:0, 8-bit
[libx264 @ 0000027abb9f3900] 264 - core 161 r3043 59c0609 - H.264/MPEG-4 AVC codec - Copyleft 2003-2021 - http://www.videolan.org/x264.html - options: cabac=1 ref=3 deblock=1:0:0 analyse=0x3:0x113 me=hex subme=7 psy=1 psy_rd=1.00:0.00 mixed_ref=1 me_range=16 chroma_me=1 trellis=1 8x8dct=1 cqm=0 deadzone=21,11 fast_pskip=1 chroma_qp_offset=-2 threads=12 lookahead_threads=2 sliced_threads=0 nr=0 decimate=1 interlaced=0 bluray_compat=0 constrained_intra=0 bframes=3 b_pyramid=2 b_adapt=1 b_bias=0 direct=1 weightb=1 open_gop=0 weightp=2 keyint=250 keyint_min=25 scenecut=40 intra_refresh=0 rc_lookahead=40 rc=abr mbtree=1 bitrate=31457 ratetol=1.0 qcomp=0.60 qpmin=0 qpmax=69 qpstep=4 ip_ratio=1.40 aq=1:1.00
Output #0, mp4, to '2023_08_10_17_58_14.mp4':
  Metadata:
    encoder         : Lavf58.45.100
    Stream #0:0: Video: h264 (libx264) (avc1 / 0x31637661), yuv420p, 1920x1080, q=-1--1, 31457 kb/s, 60 fps, 15360 tbn, 60 tbc
    Metadata:
      encoder         : Lavc58.91.100 libx264
    Side data:
      cpb: bitrate max/min/avg: 0/0/31457000 buffer size: 0 vbv_delay: N/A
frame=    8 fps=0.0 q=0.0 size=       0kB time=00:00:00.00 bitrate=N/A speed=   0x    frame=   14 fps= 13 q=0.0 size=       0kB time=00:00:00.00 bitrate=N/A speed=   0x    frame=   20 fps= 12 q=0.0 size=       0kB time=00:00:00.00 bitrate=N/A speed=   0x    frame=   25 fps= 12 q=0.0 size=       0kB time=00:00:00.00 bitrate=N/A speed=   0x    frame=   31 fps= 11 q=0.0 size=       0kB time=00:00:00.00 bitrate=N/A speed=   0x    frame=   34 fps= 10 q=0.0 size=       0kB time=00:00:00.00 bitrate=N/A speed=   0x    frame=   39 fps=9.9 q=0.0 size=       0kB time=00:00:00.00 bitrate=N/A speed=   0x    frame=   44 fps=9.9 q=0.0 size=       0kB time=00:00:00.00 bitrate=N/A speed=   0x    frame=   50 fps= 10 q=0.0 size=       0kB time=00:00:00.00 bitrate=N/A speed=   0x    frame=   55 fps=9.8 q=0.0 size=       0kB time=00:00:00.00 bitrate=N/A speed=   0x    frame=   58 fps=9.1 q=20.0 size=     768kB time=-00:00:00.01 bitrate=N/A speed=N/A    frame=   64 fps=9.3 q=30.0 size=    1792kB time=00:00:00.08 bitrate=176028.8kbits/s speed=0.0121x    frame=   67 fps=9.0 q=32.0 size=    2304kB time=00:00:00.13 bitrate=141492.0kbits/s speed=0.0179x    frame=   75 fps=9.3 q=31.0 size=    3072kB time=00:00:00.26 bitrate=94350.2kbits/s speed=0.0331x    frame=   80 fps=9.3 q=30.0 size=    3328kB time=00:00:00.35 bitrate=77880.9kbits/s speed=0.0405x    frame=   85 fps=9.2 q=30.0 size=    3328kB time=00:00:00.43 bitrate=62906.1kbits/s speed=0.047x    frame=   89 fps=9.1 q=30.0 size=    3584kB time=00:00:00.50 bitrate=58713.4kbits/s speed=0.0514x    frame=   94 fps=9.1 q=29.0 size=    3840kB time=00:00:00.58 bitrate=53921.4kbits/s speed=0.0564x    frame=   99 fps=9.0 q=29.0 size=    4096kB time=00:00:00.66 bitrate=50327.3kbits/s speed=0.0609x    frame=  104 fps=8.8 q=29.0 size=    4352kB time=00:00:00.75 bitrate=47531.8kbits/s speed=0.0638x    frame=  110 fps=8.9 q=29.0 size=    4608kB time=00:00:00.85 bitrate=44407.3kbits/s speed=0.069x    frame=  115 fps=8.9 q=29.0 size=    4864kB time=00:00:00.93 bitrate=42689.5kbits/s speed=0.0724x    frame=  119 fps=8.9 q=29.0 size=    5120kB time=00:00:01.00 bitrate=41940.7kbits/s speed=0.0746x    frame=  124 fps=8.9 q=29.0 size=    5376kB time=00:00:01.08 bitrate=40650.4kbits/s speed=0.0776x    frame=  129 fps=8.9 q=29.0 size=    5632kB time=00:00:01.16 bitrate=39544.4kbits/s speed=0.0801x    frame=  134 fps=8.8 q=28.0 size=    5888kB time=00:00:01.25 bitrate=38585.9kbits/s speed=0.0826x    frame=  139 fps=8.8 q=28.0 size=    6144kB time=00:00:01.33 bitrate=37747.2kbits/s speed=0.0849x    frame=  144 fps=8.9 q=28.0 size=    6400kB time=00:00:01.41 bitrate=37007.1kbits/s speed=0.0872x    frame=  149 fps=8.9 q=28.0 size=    6656kB time=00:00:01.50 bitrate=36349.3kbits/s speed=0.0892x    frame=  154 fps=8.9 q=28.0 size=    7168kB time=00:00:01.58 bitrate=37085.2kbits/s speed=0.0911x    frame=  159 fps=8.8 q=28.0 size=    7424kB time=00:00:01.66 bitrate=36489.2kbits/s speed=0.0928x    frame=  164 fps=8.8 q=28.0 size=    7680kB time=00:00:01.75 bitrate=35950.1kbits/s speed=0.0943x    frame=  169 fps=8.8 q=28.0 size=    7936kB time=00:00:01.83 bitrate=35459.9kbits/s speed=0.0958x    frame=  174 fps=8.8 q=28.0 size=    8192kB time=00:00:01.91 bitrate=35012.3kbits/s speed=0.0972x    frame=  179 fps=8.8 q=28.0 size=    8448kB time=00:00:02.00 bitrate=34602.1kbits/s speed=0.0985x    frame=  184 fps=8.8 q=28.0 size=    8704kB time=00:00:02.08 bitrate=34224.6kbits/s speed=0.0998x    frame=  189 fps=8.8 q=28.0 size=    8960kB time=00:00:02.16 bitrate=33876.2kbits/s speed=0.101x    frame=  194 fps=8.8 q=28.0 size=    9216kB time=00:00:02.25 bitrate=33553.6kbits/s speed=0.103x    frame=  199 fps=8.9 q=27.0 size=    9472kB time=00:00:02.33 bitrate=33254.1kbits/s speed=0.104x    frame=  204 fps=8.9 q=27.0 size=    9728kB time=00:00:02.41 bitrate=32975.2kbits/s speed=0.105x    frame=  209 fps=8.9 q=27.0 size=    9728kB time=00:00:02.50 bitrate=31876.0kbits/s speed=0.106x    frame=  214 fps=8.9 q=27.0 size=    9984kB time=00:00:02.58 bitrate=31659.6kbits/s speed=0.107x    frame=  219 fps=8.8 q=27.0 size=   10240kB time=00:00:02.66 bitrate=31456.7kbits/s speed=0.108x    frame=  225 fps=8.9 q=26.0 size=   10496kB time=00:00:02.76 bitrate=31077.7kbits/s speed=0.109x    frame=  230 fps=8.9 q=26.0 size=   10752kB time=00:00:02.85 bitrate=30904.8kbits/s speed=0.11x    frame=  235 fps=8.9 q=26.0 size=   11008kB time=00:00:02.93 bitrate=30741.8kbits/s speed=0.111x    frame=  240 fps=8.9 q=26.0 size=   11008kB time=00:00:03.01 bitrate=29892.6kbits/s speed=0.112x    frame=  245 fps=8.9 q=26.0 size=   11264kB time=00:00:03.10 bitrate=29765.5kbits/s speed=0.113x    frame=  250 fps=8.9 q=26.0 size=   11520kB time=00:00:03.18 bitrate=29645.1kbits/s speed=0.113x    frame=  255 fps=8.9 q=25.0 size=   11776kB time=00:00:03.26 bitrate=29530.9kbits/s speed=0.114x    frame=  260 fps=8.9 q=25.0 size=   12032kB time=00:00:03.35 bitrate=29422.3kbits/s speed=0.115x    frame=  265 fps=8.9 q=25.0 size=   12032kB time=00:00:03.43 bitrate=28708.2kbits/s speed=0.115x    frame=  270 fps=8.9 q=25.0 size=   12288kB time=00:00:03.51 bitrate=28624.2kbits/s speed=0.116x    frame=  275 fps=8.9 q=25.0 size=   12544kB time=00:00:03.60 bitrate=28544.2kbits/s speed=0.117x    frame=  280 fps=8.9 q=25.0 size=   12800kB time=00:00:03.68 bitrate=28467.7kbits/s speed=0.117x    frame=  285 fps=8.9 q=25.0 size=   13056kB time=00:00:03.76 bitrate=28394.7kbits/s speed=0.118x    frame=  290 fps=8.9 q=25.0 size=   13568kB time=00:00:03.85 bitrate=28869.5kbits/s speed=0.118x    frame=  295 fps=8.9 q=25.0 size=   13824kB time=00:00:03.93 bitrate=28791.0kbits/s speed=0.119x    frame=  300 fps=8.9 q=25.0 size=   14080kB time=00:00:04.01 bitrate=28715.8kbits/s speed=0.119x    frame=  305 fps=8.9 q=25.0 size=   14336kB time=00:00:04.10 bitrate=28643.7kbits/s speed=0.12x    frame=  310 fps=8.9 q=25.0 size=   14848kB time=00:00:04.18 bitrate=29075.7kbits/s speed=0.12x    frame=  315 fps=8.9 q=25.0 size=   15104kB time=00:00:04.26 bitrate=28999.3kbits/s speed=0.121x    frame=  320 fps=8.9 q=25.0 size=   15360kB time=00:00:04.35 bitrate=28925.9kbits/s speed=0.121x    frame=  325 fps=8.9 q=25.0 size=   15616kB time=00:00:04.43 bitrate=28855.2kbits/s speed=0.121x    frame=  330 fps=8.9 q=25.0 size=   15872kB time=00:00:04.51 bitrate=28787.1kbits/s speed=0.122x    frame=  335 fps=8.9 q=25.0 size=   16128kB time=00:00:04.60 bitrate=28721.5kbits/s speed=0.122x    frame=  340 fps=8.9 q=25.0 size=   16640kB time=00:00:04.68 bitrate=29106.1kbits/s speed=0.122x    frame=  343 fps=8.4 q=-1.0 Lsize=   19946kB time=00:00:05.66 bitrate=28834.1kbits/s speed=0.138x    
video:19941kB audio:0kB subtitle:0kB other streams:0kB global headers:0kB muxing overhead: 0.025466%
[libx264 @ 0000027abb9f3900] frame I:2     Avg QP:13.08  size:407324
[libx264 @ 0000027abb9f3900] frame P:86    Avg QP:19.43  size:116675
[libx264 @ 0000027abb9f3900] frame B:255   Avg QP:25.61  size: 37529
[libx264 @ 0000027abb9f3900] consecutive B-frames:  0.9%  0.0%  0.0% 99.1%
[libx264 @ 0000027abb9f3900] mb I  I16..4: 11.1% 43.4% 45.5%
[libx264 @ 0000027abb9f3900] mb P  I16..4:  1.2%  3.5%  3.5%  P16..4: 30.5% 16.3% 12.7%  0.0%  0.0%    skip:32.2%
[libx264 @ 0000027abb9f3900] mb B  I16..4:  0.1%  0.1%  0.3%  B16..8: 24.2%  6.4%  4.0%  direct: 3.7%  skip:61.2%  L0:35.1% L1:46.0% BI:18.9%
[libx264 @ 0000027abb9f3900] final ratefactor: 16.71
[libx264 @ 0000027abb9f3900] 8x8 transform intra:40.3% inter:39.1%
[libx264 @ 0000027abb9f3900] coded y,uvDC,uvAC intra: 67.6% 75.6% 65.7% inter: 15.6% 17.5% 11.5%
[libx264 @ 0000027abb9f3900] i16 v,h,dc,p: 36% 29%  6% 29%
[libx264 @ 0000027abb9f3900] i8 v,h,dc,ddl,ddr,vr,hd,vl,hu: 12% 21% 27%  5%  7%  6%  9%  5%  8%
[libx264 @ 0000027abb9f3900] i4 v,h,dc,ddl,ddr,vr,hd,vl,hu: 14% 14% 13%  9% 11% 10% 10%  9% 11%
[libx264 @ 0000027abb9f3900] i8c dc,h,v,p: 61% 17% 12%  9%
[libx264 @ 0000027abb9f3900] Weighted P-Frames: Y:0.0% UV:0.0%
[libx264 @ 0000027abb9f3900] ref P L0: 58.8% 13.3% 17.4% 10.5%
[libx264 @ 0000027abb9f3900] ref B L0: 92.4%  5.6%  2.0%
[libx264 @ 0000027abb9f3900] ref B L1: 95.8%  4.2%
[libx264 @ 0000027abb9f3900] kb/s:28573.99
